<svg width="512" height="85" viewBox="0 0 512 85" fill="none" xmlns="http://www.w3.org/2000/svg">
<g clip-path="url(#clip0_7_540)">
<path d="M60.3796 58.1202C52.236 48.5918 38.4505 31.8001 30.3199 22.2587C30.2246 22.083 30.0866 21.9339 29.9188 21.825C29.751 21.7162 29.5587 21.651 29.3592 21.6355C29.1597 21.6199 28.9594 21.6545 28.7768 21.7361C28.5941 21.8177 28.4347 21.9437 28.3133 22.1025C26.7236 23.5084 25.1471 24.8751 23.5054 26.2419C22.1112 27.4395 22.0983 27.6737 23.284 29.0405L46.6201 56.9096C47.6495 58.1071 47.6363 58.3414 46.4766 59.3307C41.9944 63.1924 37.4994 67.0454 32.9911 70.8897C31.8966 71.8399 31.4794 71.7878 30.5283 70.6554C27.2969 66.8414 24.0135 63.0145 20.8342 59.2005C17.655 55.3866 14.4887 51.807 11.3094 48.1232L5.9935 41.9402C5.89169 41.833 5.7606 41.758 5.61654 41.7246C5.47248 41.6911 5.32168 41.7005 5.18296 41.7518C5.04424 41.8031 4.92377 41.8939 4.83622 42.013C4.74867 42.1321 4.69798 42.2743 4.69053 42.4218L4.52097 54.6316C4.51433 54.7223 4.52737 54.8134 4.55883 54.8987C4.59029 54.984 4.63963 55.0616 4.70357 55.1263L4.91193 55.3736C13.1337 64.8889 21.134 74.4042 29.3818 83.9326C30.5415 85.2342 30.8671 85.2342 32.1961 84.1538C41.5515 76.1789 50.9156 68.2256 60.2883 60.294C61.057 59.565 61.1092 58.9793 60.3796 58.1202Z" fill="white"/>
<path d="M30.6194 61.7124C30.7268 61.8912 30.8759 62.0416 31.0536 62.1509C31.2314 62.2602 31.4327 62.3252 31.6408 62.3405C31.849 62.3558 32.0578 62.321 32.2497 62.2388C32.4416 62.1567 32.6109 62.0298 32.7434 61.8686C34.333 60.4498 36.0138 59.07 37.5904 57.6121C38.724 56.6879 38.7499 56.3104 37.7857 55.1389L14.671 28.155C13.7198 27.0095 13.7458 26.5409 14.8794 25.5516C19.2747 21.7768 23.679 18.0062 28.0917 14.24C29.3947 13.1336 29.7336 13.1596 30.815 14.4483L46.9848 33.4659C47.7536 34.3901 48.5354 35.3013 49.3172 36.2124C49.3448 36.3023 49.3888 36.3861 49.4473 36.4598L54.9719 42.864C55.0701 42.977 55.2004 43.0576 55.3453 43.0953C55.4903 43.133 55.6431 43.126 55.784 43.0754C55.9249 43.0247 56.0473 42.9326 56.1349 42.8113C56.2225 42.69 56.2712 42.545 56.2749 42.3954L56.4444 30.1856C56.4437 30.0005 56.3791 29.8213 56.2618 29.678L55.2846 28.5325C47.2843 19.2124 39.8574 10.2438 31.8311 0.923771C30.7757 -0.286796 30.7366 -0.247744 29.5509 0.741536L1.45901 24.5624C0.234214 25.6167 0.155781 25.864 1.19816 27.0876L17.9545 46.9253L30.6194 61.7124Z" fill="white"/>
<path d="M81.0967 51.989H89.162C89.7223 58.8879 93.1623 62.025 101.045 62.025C107.143 62.025 110.909 59.9293 110.909 55.5166C110.596 50.5832 107.391 49.4117 98.7129 47.5112C87.807 45.4806 82.9468 42.3045 82.9468 35.015C82.9468 26.9576 89.7223 22.4668 101.188 22.4668C112.655 22.4668 119.717 28.7409 120.59 37.6054H112.512C112.029 32.1904 108.212 29.0533 101.058 29.0533C94.348 29.0533 90.9603 30.9538 90.9603 34.7677C90.9603 38.5816 93.9178 39.7532 100.876 41.0548C113.749 43.6582 118.609 46.0403 118.922 55.1391C118.922 63.4438 111.222 68.5594 100.811 68.5594C88.4847 68.6115 81.8003 63.0012 81.0967 51.989Z" fill="white"/>
<path d="M136.838 30.0302V41.3548H160.187V47.8633H136.838V61.1014H162.585V67.6098H129.02V23.3525H162.585V29.9391L136.838 30.0302Z" fill="white"/>
<path d="M209.765 23.4434V67.7006H200.371L180.696 34.0911L180.579 67.7397H173.008V23.4824H182.494L202.039 56.9617L202.169 23.4824L209.765 23.4434Z" fill="white"/>
<path d="M218.091 51.989H226.157C226.704 58.8879 230.157 62.025 238.04 62.025C244.138 62.025 247.903 59.9293 247.903 55.5166C247.591 50.5832 244.385 49.4117 235.708 47.5112C224.802 45.4806 219.929 42.3045 219.929 35.015C219.929 26.9576 226.704 22.4668 238.17 22.4668C249.636 22.4668 256.711 28.7409 257.571 37.6054H249.506C249.011 32.1904 245.193 29.0533 238.053 29.0533C231.342 29.0533 227.955 30.9538 227.955 34.7677C227.955 38.5816 230.913 39.7532 237.87 41.0548C250.744 43.6582 255.604 46.0403 255.916 55.1391C255.916 63.4438 248.216 68.5594 237.805 68.5594C225.479 68.6115 218.769 63.0012 218.091 51.989Z" fill="white"/>
<path d="M273.832 30.0302V41.3548H297.182V47.8633H273.832V61.1014H299.514V67.6098H265.95V23.3525H299.514V29.9391L273.832 30.0302Z" fill="white"/>
<path d="M317.873 23.4434V67.7006H310.055V23.4434H317.873Z" fill="white"/>
<path d="M378.735 23.4434V67.7006H373.132L349.535 27.778L349.418 67.7006H345.587V23.4434H351.203L374.787 63.314L374.917 23.4434H378.735Z" fill="white"/>
<path d="M387.66 45.7156C387.543 32.3604 396.286 22.2853 408.416 22.5196C420.56 22.3374 429.42 32.4905 429.264 45.7156C429.446 59.0709 420.586 68.7945 408.416 68.6643C396.221 68.7945 387.478 58.8887 387.66 45.7156ZM425.108 45.7156C425.108 34.0916 418.332 25.9691 408.416 25.9691C398.501 25.9691 391.79 34.1437 391.79 45.7156C391.79 57.2876 398.436 65.2409 408.416 65.2409C418.397 65.2409 425.108 57.2225 425.108 45.7156Z" fill="white"/>
<path d="M452.34 23.4434C458.685 23.4434 463.545 25.4089 466.933 29.4051C470.321 33.4012 471.923 38.8813 471.923 45.7152C471.923 59.1356 464.783 67.7397 451.91 67.7397H438.177V23.4824L452.34 23.4434ZM451.845 64.3032C462.503 64.3032 467.871 57.4694 467.871 45.7152C467.871 33.7137 462.659 26.8928 452.236 26.8928H442.072V64.3032H451.845Z" fill="white"/>
<path d="M484.745 26.8932V42.8258H508.824V46.2622H484.745V64.2906H511.417V67.727H480.862V23.4697H511.417V26.9192L484.745 26.8932Z" fill="white"/>
</g>
<defs>
<clipPath id="clip0_7_540">
<rect width="511" height="85" fill="white" transform="translate(0.403564)"/>
</clipPath>
</defs>
</svg>
